<?xml version="1.0" encoding="UTF-8"?>
<svg width="440px" height="465px" viewBox="0 0 440 465" version="1.1" xmlns="http://www.w3.org/2000/svg" xmlns:xlink="http://www.w3.org/1999/xlink">
    <title>signage_neutral</title>
    <g id="Page-1" stroke="none" stroke-width="1" fill="none" fill-rule="evenodd">
        <g id="Artboard" transform="translate(-1100.000000, -2587.000000)" fill="#031110" fill-rule="nonzero">
            <g id="signage_neutral" transform="translate(1100.001797, 2587.217000)">
                <path d="M280,464 C302.081,463.975 319.975,446.081 320,424 L320,40 C319.975,17.919 302.081,0.025 280,0 L40,0 C17.919,0.025 0.025,17.919 0,40 L0,424 C0.025,446.081 17.919,463.975 40,464 L280,464 Z M16,424 L16,40 C16.015,26.751 26.751,16.015 40,16 L280,16 C293.249,16.015 303.985,26.751 304,40 L304,424 C303.985,437.249 293.249,447.985 280,448 L40,448 C26.751,447.985 16.015,437.249 16,424 Z" id="Shape"></path>
                <path d="M76.889,128 L80,128 L80,211.765 C79.948,222.87 88.895,231.922 100,232 L220,232 C231.105,231.922 240.052,222.87 240,211.765 L240,128 L243.111,128 C250.224,128.005 255.995,122.242 256.000008,115.129 C256.003,111.068 254.091,107.244 250.84,104.81 L167.728,42.572 C163.139,39.165 156.861,39.165 152.272,42.572 L69.16,104.81 C63.466,109.074 62.306,117.146 66.57,122.84 C69.004,126.09 72.828,128.003 76.889,128 Z M176,216 L144,216 L144,176 L176,176 L176,216 Z M224,211.765 C224.061,214.037 222.272,215.931 220,216 L192,216 L192,176 C191.99,167.168 184.832,160.01 176,160 L144,160 C135.168,160.01 128.01,167.168 128,176 L128,216 L100,216 C97.728,215.931 95.939,214.037 96,211.765 L96,128 L224,128 L224,211.765 Z M160,56.774 L233.749,112 L86.249,112 L160,56.774 Z" id="Shape"></path>
                <path d="M407.156,156.427 L384,110.112 L384,80 C384,75.582 380.418,72 376,72 C371.582,72 368,75.582 368,80 L368,110.112 L344.845,156.423 C344.614,156.853 344.344,157.461 344.172,158.224 C344.014,158.922 343.987,159.534 344,159.997 L344,456 C344,460.418 347.582,464 352,464 L400,464 C404.418,464 408,460.418 408,456 L408,396 L424,384 C434.049,376.426 439.97,364.583 440,352 L440,272 C440,267.582 436.418,264 432,264 C427.582,264 424,267.582 424,272 L424,352 C423.982,359.55 420.429,366.656 414.4,371.2 L408,376 L408,160 C407.982,159.488 407.919,158.856 407.75,158.15 C407.586,157.463 407.365,156.884 407.156,156.427 Z M392,400 L360,400 L360,168 L392,168 L392,400 Z M360,448 L360,416 L392,416 L392,448 L360,448 Z M364.944,152 L376,129.889 L387.056,152 L364.944,152 Z" id="Shape"></path>
                <path d="M56,312 L264,312 C268.418,312 272,308.418 272,304 C272,299.582 268.418,296 264,296 L56,296 C51.582,296 48,299.582 48,304 C48,308.418 51.582,312 56,312 Z" id="Path"></path>
                <path d="M56,280 L128,280 C132.418,280 136,276.418 136,272 C136,267.582 132.418,264 128,264 L56,264 C51.582,264 48,267.582 48,272 C48,276.418 51.582,280 56,280 Z" id="Path"></path>
                <path d="M56,344 L264,344 C268.418,344 272,340.418 272,336 C272,331.582 268.418,328 264,328 L56,328 C51.582,328 48,331.582 48,336 C48,340.418 51.582,344 56,344 Z" id="Path"></path>
                <path d="M264,360 L184,360 C179.582,360 176,363.582 176,368 C176,372.418 179.582,376 184,376 L264,376 C268.418,376 272,372.418 272,368 C272,363.582 268.418,360 264,360 Z" id="Path"></path>
                <path d="M264,408 L240,408 L240,400 C240,395.582 236.418,392 232,392 C230.982,392 229.974,392.194 229.029,392.572 L189.029,408.572 C184.908,410.166 182.86,414.798 184.454,418.919 C186.048,423.04 190.68,425.088 194.801,423.494 C194.858,423.472 194.914,423.45 194.97,423.426 L224,411.816 L224,416 C224,420.418 227.582,424 232,424 L264,424 C268.418,424 272,420.418 272,416 C272,411.582 268.418,408 264,408 Z" id="Path"></path>
            </g>
        </g>
    </g>
</svg>