<?xml version="1.0" encoding="UTF-8"?>
<svg width="339px" height="374px" viewBox="0 0 339 374" version="1.1" xmlns="http://www.w3.org/2000/svg" xmlns:xlink="http://www.w3.org/1999/xlink">
    <title>coffee-machine_neutral</title>
    <g id="Page-1" stroke="none" stroke-width="1" fill="none" fill-rule="evenodd">
        <g id="Artboard" transform="translate(-1215.000000, -934.000000)" fill="#031110" fill-rule="nonzero">
            <g id="coffee-machine_neutral" transform="translate(1215.495756, 934.000000)">
                <path d="M314.188,106.32 C327.135995,106.304571 337.628571,95.8119949 337.644,82.864 L337.644,48.864 C337.604322,21.8858036 315.73821,0.0286382186 288.76,0 L48.884,0 C21.8979928,0.0286604625 0.0286604625,21.8979928 0,48.884 L0,82.884 C0.0154287277,95.8319949 10.5080051,106.324571 23.456,106.34 L23.544,106.34 L23.544,288.168 L23.456,288.168 C10.5080051,288.183429 0.0154287277,298.676005 0,311.624 L0,324.872 C0.0154287277,337.819995 10.5080051,348.312571 23.456,348.328 L31.804,348.328 L31.804,349.988 C31.804,363.248357 42.5536432,373.998 55.814,373.998 C69.0743568,373.998 79.824,363.248357 79.824,349.988 L79.824,348.328 L256.6,348.328 L256.6,349.988 C256.6,358.562374 261.174374,366.485423 268.6,370.772611 C276.025626,375.059798 285.174374,375.059798 292.6,370.772611 C300.025626,366.485423 304.6,358.562374 304.6,349.988 L304.6,348.328 L314.168,348.328 C327.115995,348.312571 337.608571,337.819995 337.624,324.872 L337.624,311.624 C337.608571,298.676005 327.115995,288.183429 314.168,288.168 L314.044,288.168 L314.044,106.32 L314.188,106.32 Z M14,82.864 L14,48.864 C14.022043,29.6072367 29.6272367,14.002043 48.884,13.98 L288.76,13.98 C308.016763,14.002043 323.621957,29.6072367 323.644,48.864 L323.644,82.864 C323.637389,88.0836636 319.407664,92.3133886 314.188,92.32 L23.456,92.32 C18.2363364,92.3133886 14.0066114,88.0836636 14,82.864 Z M137.032,145.924 L200.632,145.924 L200.632,164.2 C200.62759,170.854956 195.234954,176.249382 188.58,176.256 L149.1,176.256 C142.439711,176.256 137.038623,170.860286 137.032,164.2 L137.032,145.924 Z M212.52,131.924 L125.128,131.924 C121.914617,131.921794 119.310206,129.317383 119.308,126.104 L119.308,106.32 L218.34,106.32 L218.34,126.104 C218.337794,129.317383 215.733383,131.921794 212.52,131.924 L212.52,131.924 Z M129.46,264.6 L129.46,225.4 L204.184,225.4 L204.184,264.6 C204.168571,277.61206 193.62406,288.156571 180.612,288.172 L153.012,288.172 C140.007751,288.14556 129.475402,277.604266 129.46,264.6 Z M65.824,349.988 C65.824,355.51637 61.3423703,359.998 55.814,359.998 C50.2856297,359.998 45.804,355.51637 45.804,349.988 L45.804,348.328 L65.824,348.328 L65.824,349.988 Z M290.624,349.988 C290.624,355.510847 286.146847,359.988 280.624,359.988 C275.101153,359.988 270.624,355.510847 270.624,349.988 L270.624,348.328 L290.624,348.328 L290.624,349.988 Z M323.648,311.624 L323.648,324.872 C323.641389,330.091664 319.411664,334.321389 314.192,334.328 L23.456,334.328 C18.2363364,334.321389 14.0066114,330.091664 14,324.872 L14,311.624 C14.0066114,306.404336 18.2363364,302.174611 23.456,302.168 L314.188,302.168 C319.407664,302.174611 323.637389,306.404336 323.644,311.624 L323.648,311.624 Z M300.064,288.16 L209.828,288.16 C214.769632,282.04505 217.65597,274.526854 218.076,266.676 L224.824,266.676 C235.605744,266.662776 244.342776,257.925744 244.356,247.144 L244.356,237.596 C244.342772,226.814906 235.605096,218.07902 224.824,218.068 L218.152,218.068 C217.983196,214.340962 214.914856,211.404726 211.184,211.4 L122.46,211.4 C120.603159,211.398938 118.822065,212.136095 117.50908,213.44908 C116.196095,214.762065 115.458938,216.543159 115.46,218.4 L115.46,264.6 C115.456109,273.183026 118.405132,281.506107 123.812,288.172 L37.544,288.172 L37.544,106.32 L105.308,106.32 L105.308,126.104 C105.343379,136.205054 112.985402,144.655949 123.032,145.704 L123.032,164.2 C123.047428,178.582375 134.701628,190.238364 149.084,190.256 L188.564,190.256 C202.50094,190.232977 213.954531,179.251626 214.564,165.328 L249.736,165.328 C253.601993,165.328 256.736,162.193993 256.736,158.328 C256.736,154.462007 253.601993,151.328 249.736,151.328 L214.616,151.328 L214.616,145.712 C224.662598,144.663949 232.304621,136.213054 232.34,126.112 L232.34,106.32 L300.064,106.32 L300.064,288.16 Z M224.824,232.068 C227.876765,232.070203 230.351589,234.543237 230.356,237.596 L230.356,247.144 C230.353794,250.198325 227.878325,252.673794 224.824,252.676 L218.184,252.676 L218.184,232.068 L224.824,232.068 Z" id="Shape"></path>
                <path d="M78.824,80.008 C93.651741,80.008 105.672,67.987741 105.672,53.16 C105.672,38.332259 93.651741,26.312 78.824,26.312 C63.996259,26.312 51.976,38.332259 51.976,53.16 C51.9936329,67.980431 64.003569,79.9903671 78.824,80.008 Z M78.824,40.312 C85.9197545,40.312 91.672,46.0642455 91.672,53.16 C91.672,60.2557545 85.9197545,66.008 78.824,66.008 C71.7282455,66.008 65.976,60.2557545 65.976,53.16 C65.9848155,46.0679003 71.7319003,40.3208155 78.824,40.312 L78.824,40.312 Z" id="Shape"></path>
                <path d="M250.076,45.572 L277.992,45.572 C281.857993,45.572 284.992,42.4379932 284.992,38.572 C284.992,34.7060068 281.857993,31.572 277.992,31.572 L250.076,31.572 C246.210007,31.572 243.076,34.7060068 243.076,38.572 C243.076,42.4379932 246.210007,45.572 250.076,45.572 L250.076,45.572 Z" id="Path"></path>
                <path d="M250.076,74.752 L277.992,74.752 C281.857993,74.752 284.992,71.6179932 284.992,67.752 C284.992,63.8860068 281.857993,60.752 277.992,60.752 L250.076,60.752 C246.210007,60.752 243.076,63.8860068 243.076,67.752 C243.076,71.6179932 246.210007,74.752 250.076,74.752 L250.076,74.752 Z" id="Path"></path>
            </g>
        </g>
    </g>
</svg>