<?xml version="1.0" encoding="UTF-8"?>
<svg width="480px" height="384px" viewBox="0 0 480 384" version="1.1" xmlns="http://www.w3.org/2000/svg" xmlns:xlink="http://www.w3.org/1999/xlink">
    <title>wifi_neutral</title>
    <g id="Page-1" stroke="none" stroke-width="1" fill="none" fill-rule="evenodd">
        <g id="Artboard" transform="translate(-1080.000000, -5922.000000)" fill="#031110" fill-rule="nonzero">
            <g id="wifi_neutral" transform="translate(1080.570609, 5922.696986)">
                <path d="M239.43075,288 C213.23975,288 191.93075,309.309 191.93075,335.5 C191.93075,361.691 213.23975,383 239.43075,383 C265.62175,383 286.93075,361.691 286.93075,335.5 C286.93075,309.309 265.62275,288 239.43075,288 Z M239.43075,368 C221.51075,368 206.93075,353.421 206.93075,335.5 C206.93075,317.579 221.51075,303 239.43075,303 C257.35075,303 271.93075,317.579 271.93075,335.5 C271.93075,353.421 257.35175,368 239.43075,368 Z" id="Shape"></path>
                <path d="M137.96175,234.03 C135.03275,236.96 135.03275,241.708 137.96175,244.637 C140.88975,247.564 145.63875,247.566 148.56775,244.637 C198.67075,194.535 280.19175,194.535 330.29475,244.637 C331.75875,246.101 333.67875,246.833 335.59775,246.833 C337.51675,246.833 339.43675,246.101 340.90075,244.637 C343.82975,241.707 343.82975,236.959 340.90075,234.03 C284.95075,178.08 193.91175,178.08 137.96175,234.03 Z" id="Path"></path>
                <path d="M239.43075,96 C175.45775,96 115.31375,120.912 70.07875,166.147 C67.14975,169.077 67.14975,173.825 70.07875,176.754 C73.00775,179.682 77.75675,179.682 80.68475,176.754 C123.08675,134.351 179.46375,110.999 239.43075,110.999 C299.39775,110.999 355.77375,134.351 398.17675,176.754 C399.64075,178.218 401.56075,178.95 403.47975,178.95 C405.39875,178.95 407.31875,178.218 408.78275,176.754 C411.71175,173.824 411.71175,169.076 408.78275,166.147 C363.54775,120.912 303.40375,96 239.43075,96 Z" id="Path"></path>
                <path d="M476.66575,98.266 C413.29775,34.899 329.04675,0 239.43075,0 C149.81475,0 65.56475,34.899 2.19675,98.266 C-0.73225,101.196 -0.73225,105.944 2.19675,108.873 C5.12575,111.801 9.87475,111.801 12.80275,108.873 C73.33775,48.338 153.82275,15 239.43075,15 C325.03875,15 405.52375,48.338 466.05875,108.873 C467.52275,110.337 469.44275,111.069 471.36175,111.069 C473.28075,111.069 475.20075,110.337 476.66475,108.873 C479.59475,105.944 479.59475,101.196 476.66575,98.266 Z" id="Path"></path>
            </g>
        </g>
    </g>
</svg>