<?xml version="1.0" encoding="UTF-8"?>
<svg width="492px" height="386px" viewBox="0 0 492 386" version="1.1" xmlns="http://www.w3.org/2000/svg" xmlns:xlink="http://www.w3.org/1999/xlink">
    <title>sofa_neutral</title>
    <g id="Page-1" stroke="none" stroke-width="1" fill="none" fill-rule="evenodd">
        <g id="Artboard" transform="translate(-1074.000000, -1290.000000)" fill="#031110" fill-rule="nonzero">
            <g id="sofa_neutral" transform="translate(1074.001797, 1290.002000)">
                <path d="M208.417,115.921 C202.966235,119.777412 198.295526,124.631692 194.652,130.227 C193.480705,132.022438 193.356238,134.30637 194.325485,136.218461 C195.294733,138.130552 197.210443,139.380309 199.350986,139.496961 C201.491528,139.613613 203.531705,138.579438 204.703,136.784 C207.522161,132.451692 211.136964,128.693017 215.356,125.707 C218.034426,123.78209 218.656863,120.056131 216.749539,117.365153 C214.842216,114.674175 211.120414,114.027345 208.417,115.917 L208.417,115.921 Z" id="Path"></path>
                <path d="M99.75,373.212 L55.77,373.212 L55.77,98.351 C55.77,98.251 55.784,98.159 55.784,98.061 C55.784,50.608 92.392,12.002 137.389,12.002 C180.646,12.002 216.132,47.688 218.811,92.607 C192.203883,95.7700411 172.154354,118.312558 172.117,145.107 L172.117,154.482 C172.117,157.795708 174.803292,160.482 178.117,160.482 L204.817,160.482 C207.469,170.082 216.045,177.173 226.089,177.173 C236.133,177.173 244.708,170.086 247.359,160.482 L271.868,160.482 C275.181708,160.482 277.868,157.795708 277.868,154.482 L277.868,145.107 C277.832461,118.183578 257.597564,95.5738503 230.843,92.563 C228.112,41.04 187.243,0 137.39,0 C85.948,0 44.07,43.7 43.79,97.521 C43.78,97.66 43.769,97.799 43.769,97.94 L43.769,373.21 L6,373.21 C2.6862915,373.21 0,375.896292 0,379.21 C0,382.523708 2.6862915,385.21 6,385.21 L99.75,385.21 C103.063708,385.21 105.75,382.523708 105.75,379.21 C105.75,375.896292 103.063708,373.21 99.75,373.21 L99.75,373.212 Z M226.088,165.175 C222.709149,165.120809 219.58922,163.353866 217.805,160.484 L234.37,160.484 C232.585971,163.353571 229.466494,165.120471 226.088,165.175 L226.088,165.175 Z M265.867,145.107 L265.867,148.482 L184.117,148.482 L184.117,145.107 C184.117,122.532361 202.417361,104.232 224.992,104.232 C247.566639,104.232 265.867,122.532361 265.867,145.107 L265.867,145.107 Z" id="Shape"></path>
                <path d="M463.663,280.507 L463.663,240.807 C463.538692,226.865694 452.15356,215.65547 438.212,215.745893 L328.418,215.745893 C321.665451,215.712998 315.181392,218.388752 310.418,223.175 C309.924,223.675 309.459,224.189 309.012,224.719 C304.144576,219.013724 297.017454,215.733508 289.518,215.745893 L179.1,215.745893 C165.158275,215.655468 153.772856,226.865533 153.648,240.807 L153.648,280.621 C138.767031,281.937667 127.318664,294.339416 127.194,309.278 L127.194,379.215 C127.194,382.528708 129.880292,385.215 133.194,385.215 L179.713,385.215 C183.026708,385.215 185.713,382.528708 185.713,379.215 L185.713,371.222 L433.482,371.298 L433.482,379.215 C433.482,382.528708 436.168292,385.215 439.482,385.215 L486,385.215 C489.313708,385.215 492,382.528708 492,379.215 L492,309.275 C491.858392,293.612805 479.321273,280.884999 463.663,280.507 L463.663,280.507 Z M318.918,231.641 C321.434835,229.121579 324.856912,227.716727 328.418,227.741 L438.212,227.741 C445.528833,227.643036 451.545143,233.48446 451.663,240.801 L451.663,282.63 C440.738568,286.974445 433.5451,297.515579 433.482,309.272 L433.482,311.622 L315,311.592 L315.015,241.405 C314.956078,237.75901 316.36205,234.241738 318.918,231.641 L318.918,231.641 Z M179.1,227.741 L289.516,227.741 C296.835138,227.643057 302.852413,233.488103 302.967,240.807 L302.994,311.589 L185.713,311.557 L185.713,309.276 C185.636071,296.786981 177.540949,285.762042 165.648,281.949 L165.648,240.807 C165.764767,233.489122 171.781846,227.646043 179.1,227.744 L179.1,227.741 Z M173.713,373.209 L139.194,373.209 L139.194,309.275 C139.450569,299.927275 147.102255,292.482725 156.4535,292.482725 C165.804745,292.482725 173.456431,299.927275 173.713,309.275 L173.713,373.209 Z M185.713,359.216 L185.713,323.556 L308.991,323.59 L309,323.59 L433.481,323.625 L433.481,359.295 L185.713,359.216 Z M480,373.212 L445.482,373.212 L445.482,309.275 C445.728688,299.920335 453.383083,292.465131 462.741,292.465131 C472.098917,292.465131 479.753312,299.920335 480,309.275 L480,373.212 Z" id="Shape"></path>
            </g>
        </g>
    </g>
</svg>