<?xml version="1.0" encoding="UTF-8"?>
<svg width="513px" height="513px" viewBox="0 0 513 513" version="1.1" xmlns="http://www.w3.org/2000/svg" xmlns:xlink="http://www.w3.org/1999/xlink">
    <title>clean_neutral</title>
    <g id="Page-1" stroke="none" stroke-width="1" fill="none" fill-rule="evenodd">
        <g id="Artboard" transform="translate(-1128.000000, -1508.000000)" fill="#031110" fill-rule="nonzero">
            <g id="clean_neutral" transform="translate(1128.306842, 1507.998000)">
                <path d="M510.146082,158.759338 C506.389082,144.737338 497.396082,133.016338 484.823082,125.758338 L421.207082,89.0293382 C416.425082,86.2693382 410.309082,87.9063382 407.547082,92.6893382 C404.785082,97.4723382 406.424082,103.587338 411.207082,106.349338 L474.823082,143.078338 C482.769082,147.666338 488.452082,155.072338 490.827082,163.934338 C493.201082,172.797338 491.983082,182.053338 487.395082,189.999338 L436.910082,277.442338 L436.910082,206.143338 C436.910082,188.618338 422.652082,174.360338 405.127082,174.360338 C400.966082,174.360338 396.990082,175.164338 393.344082,176.624338 L393.344082,149.470338 C393.344082,131.945338 379.086082,117.687338 361.561082,117.687338 C357.217082,117.687338 353.075082,118.562338 349.300082,120.147338 C346.684082,105.238338 333.641082,93.8733382 317.994082,93.8733382 C302.347082,93.8733382 289.305082,105.238338 286.689082,120.147338 C282.914082,118.563338 278.771082,117.687338 274.428082,117.687338 C256.903082,117.687338 242.645082,131.945338 242.645082,149.470338 L242.643082,270.485338 L231.544082,253.159338 C222.817082,239.534338 205.967082,233.486338 190.569082,238.456338 C172.168082,244.393338 161.917082,263.604338 167.231082,282.194338 L168.063082,285.103338 C172.430082,300.381338 178.385082,315.111338 185.751082,329.065338 L116.853082,289.287338 C100.450082,279.816338 94.8100818,258.767338 104.280082,242.364338 L222.735082,37.1983382 C227.323082,29.2523382 234.730082,23.5683382 243.592082,21.1933382 C252.454082,18.8173382 261.711082,20.0373382 269.657082,24.6253382 L333.277082,61.3553382 C338.061082,64.1183382 344.176082,62.4793382 346.937082,57.6953382 C349.699082,52.9123382 348.060082,46.7973382 343.277082,44.0353382 L279.657082,7.30533818 C267.084082,0.0473381845 252.437082,-1.88266182 238.415082,1.87533818 C224.393082,5.63233818 212.672082,14.6263382 205.414082,27.1983382 L199.095082,38.1423382 C174.661082,31.0853382 149.397082,27.2413382 123.872082,26.7273382 C123.803082,26.7263382 123.735082,26.7253382 123.667082,26.7253382 C118.238082,26.7253382 113.783082,31.0713382 113.673082,36.5243382 C113.562082,42.0453382 117.948082,46.6123382 123.470082,46.7233382 C145.592082,47.1683382 167.501082,50.2993382 188.772082,56.0233382 L122.542082,170.736338 C108.170082,165.795338 93.1740818,163.147338 77.8510818,162.874338 C72.3170818,162.763338 67.7730818,167.172338 67.6708562,172.693338 C67.5750818,178.216338 71.9720818,182.771338 77.4940818,182.870338 C89.3980818,183.083338 101.070082,184.955338 112.324082,188.434338 L86.9620818,232.363338 C71.9780818,258.316338 80.9020818,291.622338 106.855082,306.606338 L210.280082,366.318338 C222.215082,381.120338 235.976082,394.473338 251.290082,405.956338 L251.290082,502.014338 C251.290082,507.536338 255.767082,512.016338 261.290082,512.016338 C266.813082,512.016338 271.290082,507.536338 271.290082,502.014338 L271.290082,400.887338 C271.290082,397.659338 269.731082,394.628338 267.105082,392.751338 C228.635082,365.255338 200.291082,325.072338 187.294082,279.606338 L186.462082,276.697338 C184.128082,268.533338 188.630082,260.096338 196.710082,257.490338 C203.470082,255.310338 210.872082,257.964338 214.704082,263.946338 L244.224082,310.029338 C246.619082,313.767338 251.193082,315.479338 255.454082,314.232338 C259.716082,312.985338 262.644082,309.076338 262.644082,304.635338 L262.644082,263.217338 C262.645082,263.151338 262.646082,263.085338 262.646082,263.019338 L262.646082,149.471338 C262.646082,142.974338 267.932082,137.688338 274.429082,137.688338 C280.926082,137.688338 286.212082,142.974338 286.212082,149.471338 L286.212082,243.384338 C286.212082,248.906338 290.689082,253.384338 296.212082,253.384338 C301.735082,253.384338 306.212082,248.906338 306.212082,243.384338 L306.212082,125.656338 C306.212082,119.159338 311.498082,113.873338 317.995082,113.873338 C324.493082,113.873338 329.778082,119.159338 329.778082,125.656338 L329.778082,243.384338 C329.778082,248.906338 334.255082,253.384338 339.778082,253.384338 C345.301082,253.384338 349.778082,248.906338 349.778082,243.384338 L349.778082,149.471338 C349.778082,142.974338 355.064082,137.688338 361.561082,137.688338 C368.058082,137.688338 373.344082,142.974338 373.344082,149.471338 L373.344082,243.384338 C373.344082,248.906338 377.821082,253.384338 383.344082,253.384338 C388.867082,253.384338 393.344082,248.906338 393.344082,243.384338 L393.344082,206.145338 C393.344082,199.648338 398.630082,194.362338 405.127082,194.362338 C411.624082,194.362338 416.910082,199.648338 416.910082,206.145338 L416.910082,288.115338 C416.910082,327.394338 400.958082,365.828338 373.144082,393.562338 C371.263082,395.438338 370.205082,397.986338 370.205082,400.643338 L370.205082,502.016338 C370.205082,507.538338 374.682082,512.016338 380.205082,512.016338 C385.728082,512.016338 390.205082,507.538338 390.205082,502.016338 L390.205082,404.722338 C411.940082,381.971338 426.607082,354.186338 433.102082,324.038338 L504.715082,200.001338 C511.976082,187.428338 513.904082,172.781338 510.146082,158.759338 L510.146082,158.759338 Z" id="XMLID_544_"></path>
                <path d="M10.0090818,68.1193382 C11.2850818,68.1193382 12.5830818,67.8733382 13.8350818,67.3533382 C33.9490818,59.0153382 55.0950818,53.1123382 76.6860818,49.8073382 C82.1460818,48.9723382 85.8940818,43.8693382 85.0580818,38.4103382 C84.2230818,32.9503382 79.1220818,29.2083382 73.6610818,30.0383382 C50.4800818,33.5853382 27.7750818,39.9243382 6.17608181,48.8793382 C1.07408181,50.9943382 -1.34691819,56.8443382 0.768081801,61.9463382 C2.36308181,65.7963382 6.08508181,68.1193382 10.0090818,68.1193382 Z" id="XMLID_563_"></path>
                <path d="M10.0080818,133.326338 C11.2760818,133.326338 12.5650818,133.083338 13.8100818,132.570338 C45.0200818,119.726338 79.2930818,115.123338 112.924082,119.258338 C118.407082,119.941338 123.396082,116.036338 124.070082,110.554338 C124.744082,105.073338 120.847082,100.082338 115.365082,99.4083382 C78.3300818,94.8513382 40.5790818,99.9263382 6.19808181,114.076338 C1.09108181,116.178338 -1.34591819,122.021338 0.756081801,127.129338 C2.34608181,130.991338 6.07508181,133.326338 10.0080818,133.326338 Z" id="XMLID_564_"></path>
                <path d="M24.8620818,171.825338 C18.1090818,174.314338 11.4880818,177.335338 5.18208181,180.804338 C0.343081801,183.466338 -1.42191819,189.546338 1.24008181,194.385338 C3.06108181,197.696338 6.48208181,199.568338 10.0110818,199.568338 C11.6400818,199.568338 13.2940818,199.168338 14.8220818,198.328338 C20.2550818,195.340338 25.9600818,192.737338 31.7790818,190.592338 C36.9610818,188.682338 39.6140818,182.933338 37.7030818,177.750338 C35.7930818,172.569338 30.0430818,169.914338 24.8620818,171.825338 L24.8620818,171.825338 Z" id="XMLID_565_"></path>
                <path d="M377.244082,85.1953382 C379.874082,85.1953382 382.444082,84.1253382 384.314082,82.2653382 C386.174082,80.4053382 387.244082,77.8253382 387.244082,75.1953382 C387.244082,72.5553382 386.174082,69.9753382 384.314082,68.1153382 C382.444082,66.2563382 379.873082,65.1853382 377.244082,65.1853382 C374.614082,65.1853382 372.034082,66.2553382 370.174082,68.1153382 C368.304082,69.9853382 367.244082,72.5553382 367.244082,75.1953382 C367.244082,77.8253382 368.304082,80.3953382 370.174082,82.2653382 C372.034082,84.1253382 374.603082,85.1953382 377.244082,85.1953382 L377.244082,85.1953382 Z" id="XMLID_566_"></path>
            </g>
        </g>
    </g>
</svg>