<?xml version="1.0" encoding="UTF-8"?>
<svg width="512px" height="513px" viewBox="0 0 512 513" version="1.1" xmlns="http://www.w3.org/2000/svg" xmlns:xlink="http://www.w3.org/1999/xlink">
    <title>round-table_neutral</title>
    <g id="Page-1" stroke="none" stroke-width="1" fill="none" fill-rule="evenodd">
        <g id="Artboard" transform="translate(-1064.000000, -6505.000000)" fill="#031110" fill-rule="nonzero">
            <g id="round-table_neutral" transform="translate(1064.002274, 6505.696986)">
                <path d="M498.225794,440.583052 C507.71017,427.176802 512.55392,411.032271 511.948451,394.422896 C511.257044,375.372115 503.444544,357.446333 489.952357,343.958052 L456.49142,310.497115 C463.382044,285.165083 465.409388,259.071333 462.499232,232.852583 C462.042201,228.739302 458.33517,225.778365 454.217982,226.227583 C450.100794,226.684615 447.135951,230.391646 447.592982,234.508833 C449.971888,255.934615 448.788294,277.270552 444.108607,298.110396 L433.374232,287.376021 C427.870326,281.872115 420.546107,278.840865 412.757044,278.840865 C404.948451,278.840865 397.624232,281.872115 392.132044,287.379927 C380.77267,298.751021 380.77267,317.251021 392.135951,328.614302 L420.315638,356.782271 C412.444544,369.567427 403.042201,381.477583 392.296107,392.23149 C345.405482,439.122115 278.046107,458.407271 213.850794,444.079146 L224.600794,433.329146 C230.104701,427.821333 233.135951,420.504927 233.135951,412.719771 C233.135951,404.915083 230.100794,397.590865 224.596888,392.098677 C213.233607,380.739302 194.737513,380.739302 183.358607,392.098677 L155.143763,420.309615 C142.276576,412.407271 130.331263,402.989302 119.58517,392.23149 C108.268763,380.915083 98.4172008,368.278365 90.2843878,354.684615 C90.2062628,354.524459 90.1476698,354.35649 90.0539198,354.204146 C86.8781378,348.821333 83.9797008,343.321333 81.4250128,337.82524 C77.7257938,329.946333 74.5304818,321.711959 71.9406378,313.35649 C71.8234508,312.98149 71.6711068,312.626021 71.5031378,312.282271 C64.1906378,288.309615 61.6242318,263.461959 63.8898568,238.403365 C64.2648568,234.278365 61.2218878,230.633833 57.0968878,230.258833 C52.9836068,229.879927 49.3273568,232.926802 48.9523568,237.051802 C46.6047008,262.958052 49.0578258,288.661177 56.2218878,313.524459 L23.9250128,345.821333 C10.5031378,359.239302 2.6945438,377.063521 1.9328258,396.004927 C1.2687628,412.516646 5.9953258,428.594771 15.3312628,441.985396 L14.5812628,442.735396 C8.9406378,448.376021 5.8351698,455.872115 5.8351698,463.844771 C5.8351698,471.817427 8.9406378,479.313521 14.5812628,484.954146 L28.4875128,498.860396 C34.3039198,504.680709 41.9484508,507.590865 49.5929818,507.590865 C57.2375128,507.590865 64.8781378,504.680709 70.6984508,498.860396 L71.3703258,498.188521 C84.1007938,507.204146 99.1750128,511.973677 114.667201,511.973677 C119.27267,511.973677 123.917201,511.551802 128.542201,510.696333 C132.61642,509.942427 135.307826,506.028365 134.55392,501.958052 C133.800013,497.883833 129.878138,495.20024 125.815638,495.946333 C110.503138,498.778365 95.0070438,495.653365 82.1867318,487.376021 L97.9836068,471.579146 C101.858607,467.704146 104.534388,462.954146 105.831263,457.770552 C116.909388,465.461959 132.276576,464.38774 142.139857,454.520552 L161.569544,435.094771 C161.581263,435.083052 161.592982,435.071333 161.608607,435.055709 L193.96017,402.708052 C199.487513,397.188521 208.475794,397.188521 213.999232,402.711959 C216.667201,405.372115 218.135951,408.926802 218.135951,412.719771 C218.135951,416.497115 216.663294,420.051802 213.99142,422.723677 L193.99142,442.723677 C193.96017,442.751021 193.936732,442.778365 193.909388,442.805709 L157.409388,479.301802 C155.425013,481.286177 153.296107,483.141646 151.077357,484.821333 C147.77267,487.317427 147.120326,492.020552 149.620326,495.32524 C151.092982,497.274459 153.33517,498.301802 155.604701,498.301802 C157.182826,498.301802 158.77267,497.805709 160.124232,496.782271 C162.889857,494.692427 165.546107,492.379927 168.014857,489.907271 L201.464076,456.465865 C219.46017,461.340865 237.757044,463.723677 255.921107,463.723677 C275.440638,463.723677 294.792201,460.958052 313.417201,455.598677 L345.850794,488.04399 C359.27267,501.461959 377.096888,509.270552 396.042201,510.028365 C397.061732,510.071333 398.077357,510.090865 399.092982,510.090865 C414.526576,510.090865 429.464076,505.383833 442.026576,496.626021 L442.784388,497.383833 C448.600794,503.20024 456.245326,506.110396 463.889857,506.110396 C471.534388,506.110396 479.175013,503.20024 484.995326,497.383833 L498.901576,483.477583 C504.542201,477.836959 507.64767,470.340865 507.64767,462.368209 C507.64767,454.395552 504.542201,446.899459 498.901576,441.26274 L498.225794,440.583052 Z M16.9172008,396.610396 C17.5265758,381.442427 23.7804818,367.172896 34.5265758,356.426802 L61.5070438,329.45024 C65.0617318,338.860396 69.3039198,348.01274 74.1945438,356.809615 L59.3039198,371.696333 C53.9328258,377.059615 50.9757938,384.20024 50.9757938,391.797896 C50.9757938,397.51274 52.6476698,402.969771 55.7648568,407.60649 C50.6672008,408.864302 45.8390758,411.48149 41.8625128,415.454146 L26.1437628,431.172896 C19.6672008,420.930709 16.4211068,408.91899 16.9172008,396.610396 L16.9172008,396.610396 Z M87.3781378,460.973677 L65.5773568,482.770552 C65.5773568,482.774459 65.5734508,482.774459 65.5695438,482.778365 L60.0929818,488.254927 C54.3039198,494.04399 44.8820438,494.04399 39.0890758,488.254927 L25.1828258,474.348677 C22.3781378,471.54399 20.8312628,467.813521 20.8312628,463.844771 C20.8312628,459.879927 22.3781378,456.149459 25.1828258,453.344771 L30.5461068,447.98149 C30.5656378,447.961959 30.5851698,447.946333 30.6007938,447.926802 L52.4679818,426.063521 C55.3625128,423.16899 59.1632938,421.719771 62.9679818,421.719771 C66.7531378,421.719771 70.5343878,423.157271 73.4250128,426.024459 L86.7101698,439.301802 L87.3781378,439.969771 C90.1828258,442.774459 91.7258086,446.504927 91.7258086,450.469771 C91.7297008,454.438521 90.1828258,458.16899 87.3781378,460.973677 Z M131.534388,443.915083 C128.999232,446.454146 125.624232,447.852583 122.038294,447.852583 C118.452357,447.852583 115.077357,446.454146 112.542201,443.915083 L98.0578258,429.434615 C98.0578258,429.434615 97.9836068,429.364302 97.9836068,429.360396 L91.5070438,422.883833 L84.0773568,415.458052 C84.0617318,415.442427 84.0422008,415.426802 84.0265758,415.411177 L69.9093878,401.297896 C67.3703258,398.76274 65.9718878,395.38774 65.9718878,391.797896 C65.9718878,388.211959 67.3703258,384.840865 69.9093878,382.305709 L82.2179818,369.997115 C89.0461068,380.360396 96.8156378,390.13774 105.432826,399.180709 L101.577357,403.036177 C98.6476698,405.965865 98.6476698,410.711959 101.577357,413.641646 C103.042201,415.10649 104.964076,415.836959 106.882044,415.836959 C108.800013,415.836959 110.721888,415.10649 112.186732,413.641646 L116.167201,409.661177 C124.925013,417.633833 134.331263,424.833052 144.27267,431.180709 L131.534388,443.915083 Z M402.745326,297.977583 C405.405482,295.309615 408.96017,293.840865 412.753138,293.840865 C416.542201,293.840865 420.096888,295.313521 422.768763,297.98149 L479.346888,354.563521 C499.510951,374.727583 502.452357,406.360396 487.417201,429.774459 L471.620326,413.977583 C467.667201,410.028365 462.874232,407.422896 457.811732,406.153365 C461.112513,401.426802 462.89767,395.813521 462.89767,389.926802 C462.89767,382.333052 459.940638,375.196333 454.569544,369.82524 L402.74142,318.008833 C397.221888,312.489302 397.221888,303.504927 402.745326,297.977583 L402.745326,297.977583 Z M399.163294,406.48149 L403.069544,410.38774 C404.534388,411.848677 406.456263,412.583052 408.374232,412.583052 C410.292201,412.583052 412.214076,411.848677 413.67892,410.383833 C416.604701,407.454146 416.604701,402.708052 413.675013,399.778365 L409.635951,395.739302 C417.628138,386.965865 424.83517,377.567427 431.17892,367.649459 L443.964076,380.430709 C446.503138,382.965865 447.89767,386.336959 447.89767,389.926802 C447.89767,393.51274 446.503138,396.883833 443.964076,399.422896 L429.444544,413.942427 C429.432826,413.954146 429.417201,413.965865 429.405482,413.977583 L415.499232,427.883833 C415.483607,427.895552 415.471888,427.911177 415.46017,427.922896 L401.33517,442.051802 C396.096888,447.286177 387.577357,447.286177 382.33517,442.051802 L369.940638,429.653365 C380.257044,422.883833 390.046107,415.153365 399.163294,406.48149 L399.163294,406.48149 Z M396.639857,495.04399 C381.471888,494.434615 367.202357,488.180709 356.456263,477.438521 L329.39767,450.376021 C334.421107,448.485396 339.378138,446.399459 344.225794,444.129927 C348.436732,442.165083 352.64767,440.016646 356.792201,437.723677 L371.729701,452.657271 C381.475794,462.399459 396.58517,463.57524 407.624232,456.196333 C408.913294,461.415083 411.596888,466.204146 415.495326,470.102583 L431.206263,485.809615 C420.96017,492.286177 408.940638,495.532271 396.639857,495.04399 L396.639857,495.04399 Z M488.296107,472.868209 L474.385951,486.774459 C468.600794,492.563521 459.17892,492.567427 453.385951,486.774459 L426.104701,459.493209 C423.296107,456.688521 421.753138,452.958052 421.753138,448.993209 C421.753138,445.036177 423.292201,441.313521 426.08517,438.51274 L440.030482,424.567427 C442.925013,421.684615 446.717982,420.243209 450.510951,420.243209 C454.311732,420.243209 458.11642,421.688521 461.010951,424.583052 L482.940638,446.51274 C482.944544,446.51274 482.948451,446.516646 482.948451,446.520552 L488.296107,451.864302 C491.104701,454.66899 492.64767,458.399459 492.64767,462.368209 C492.64767,466.336959 491.100794,470.063521 488.296107,472.868209 L488.296107,472.868209 Z" id="Shape"></path>
                <path d="M78.6320438,224.540083 C84.1359508,230.04399 91.4562628,233.07524 99.2414198,233.07524 C107.050013,233.07524 114.374232,230.04399 119.86642,224.536177 C131.225794,213.165083 131.225794,194.665083 119.862513,183.301802 L91.5578258,155.001021 C98.8859508,143.086959 107.55392,131.946333 117.405482,121.778365 C117.61642,121.60649 117.823451,121.426802 118.02267,121.227583 C118.268763,120.98149 118.487513,120.715865 118.694544,120.442427 C118.987513,120.145552 119.284388,119.844771 119.581263,119.54399 C130.776576,108.352583 143.249232,98.6103958 156.659388,90.5478958 C157.042201,90.3994588 157.417201,90.2197708 157.780482,90.0049268 C163.11642,86.8525828 168.612513,83.9502398 174.135951,81.3760208 C182.042201,77.6728958 190.276576,74.4814898 198.61642,71.8955518 C199.05392,71.7588328 199.467982,71.5752398 199.86642,71.3643018 C231.99142,61.6299268 265.745326,60.4228958 298.319544,67.7588328 L287.448451,78.6299268 C281.936732,84.1377398 278.901576,91.4580518 278.901576,99.2393018 C278.901576,107.036177 281.940638,114.360396 287.448451,119.85649 C298.815638,131.223677 317.311732,131.223677 328.675013,119.85649 L356.944544,91.5908648 C369.725794,99.4619588 381.596888,108.840865 392.288294,119.54399 C404.350794,131.614302 414.737513,145.149459 423.163294,159.770552 C426.456263,165.497115 435.831263,185.301802 439.893763,197.790083 C439.999232,198.344771 440.171107,198.883833 440.401576,199.403365 C440.405482,199.415083 440.409388,199.422896 440.409388,199.430709 C441.917201,204.411177 444.901576,203.879927 447.257044,203.879927 L447.264857,203.879927 C449.182826,203.876021 451.096888,203.145552 452.561732,201.684615 L488.120326,166.13774 C501.542201,152.715865 509.350794,134.895552 510.108607,115.95024 C510.77267,99.4424268 506.046107,83.3603958 496.71017,69.9697708 L497.46017,69.2197708 C503.096888,63.5830518 506.202357,56.0869588 506.202357,48.1103958 C506.202357,40.1377398 503.096888,32.6416458 497.46017,27.0049268 L483.55392,13.0986768 C471.913294,1.46195878 452.979701,1.46195878 441.339076,13.0986768 L440.667201,13.7705518 C427.260951,4.28617678 411.128138,-0.561479218 394.495326,0.0518019816 C375.440638,0.747114782 357.514857,8.55961478 344.02267,22.0518018 L310.694544,55.3799268 C273.792201,45.3213328 235.167201,45.5908648 198.413294,56.1533648 L166.143763,23.8760208 C152.721888,10.4580518 134.89767,2.64945878 115.952357,1.89164578 C99.4601698,1.22367678 83.3625128,5.95414578 69.9679818,15.2900828 L69.2179818,14.5361768 C57.5773568,2.89945878 38.6437628,2.90336478 27.0031378,14.5361768 L13.1007938,28.4424268 C7.4601698,34.0791458 4.3547008,41.5752398 4.3547008,49.5478958 C4.3547008,57.5244588 7.4601698,65.0205518 13.1007938,70.6572708 L13.7765758,71.3330518 C4.2882938,84.7432088 -0.551549198,100.88774 0.0500130019,117.497115 C0.741419802,136.547896 8.5539198,154.469771 22.0461068,167.961959 L78.6320438,224.540083 Z M413.745326,82.2822708 C413.846888,82.3838328 413.948451,82.4932088 414.05392,82.5947708 L442.128138,110.657271 C444.667201,113.196333 446.065638,116.571333 446.065638,120.157271 C446.065638,123.747115 444.671107,127.118209 442.128138,129.653365 L429.796107,141.985396 C422.983607,131.618209 415.221888,121.836959 406.608607,112.774459 L410.464076,108.922896 C413.393763,105.993209 413.393763,101.243209 410.464076,98.3174268 C407.534388,95.3877398 402.784388,95.3877398 399.858607,98.3174268 L395.893763,102.282271 C387.139857,94.2939898 377.745326,87.0830518 367.815638,80.7275828 L380.503138,68.0400828 C385.74142,62.8018018 394.268763,62.8018018 399.507044,68.0400828 L413.745326,82.2822708 Z M495.124232,115.348677 C494.518763,130.516646 488.264857,144.782271 477.518763,155.528365 L450.339076,182.696333 C446.487513,172.485396 440.83517,161.032271 437.768763,155.227583 L452.729701,140.26274 C458.104701,134.895552 461.061732,127.758833 461.061732,120.161177 C461.061732,114.446333 459.389857,108.993209 456.27267,104.352583 C461.370326,103.094771 466.202357,100.477583 470.17892,96.5010208 L485.893763,80.7861768 C492.374232,91.0322708 495.620326,103.040083 495.124232,115.348677 Z M462.448451,19.3603958 C466.253138,19.3603958 470.05392,20.8096148 472.948451,23.7041458 L486.858607,37.6103958 C489.663294,40.4150828 491.206263,44.1416458 491.206263,48.1103958 C491.206263,52.0791458 489.663294,55.8096148 486.858607,58.6143018 L481.401576,64.0713328 C481.385951,64.0869588 481.36642,64.1025828 481.354701,64.1182088 L459.573451,85.8955518 C453.784388,91.6846148 444.362513,91.6846148 438.573451,85.8955518 L424.667201,71.9893018 C418.874232,66.1963328 418.874232,56.7744588 424.663294,50.9853958 L451.948451,23.7041458 C454.842982,20.8057088 458.643763,19.3603958 462.448451,19.3603958 L462.448451,19.3603958 Z M354.632044,32.6533648 C374.800013,12.4853958 406.436732,9.54398978 429.858607,24.5830518 L414.057826,40.3799268 C410.104701,44.3330518 407.495326,49.1299268 406.229701,54.1963328 C395.151576,46.4932088 379.768763,47.5635208 369.89767,57.4346148 L318.077357,109.251021 C312.557826,114.770552 303.577357,114.770552 298.050013,109.247115 C295.374232,106.579146 293.905482,103.024459 293.905482,99.2393018 C293.905482,95.4658648 295.378138,91.9111768 298.057826,89.2314898 L354.632044,32.6533648 Z M68.0422008,131.485396 C65.5031378,128.95024 64.1086068,125.579146 64.1086068,121.989302 C64.1086068,118.403365 65.5031378,115.032271 68.0422008,112.493209 L110.675013,69.8682088 C115.913294,64.6299268 124.432826,64.6299268 129.671107,69.8682088 L141.921107,82.1143018 C131.557826,88.9307088 121.77267,96.6963328 112.714076,105.313521 L108.92892,101.528365 C105.999232,98.6025828 101.253138,98.6025828 98.3234508,101.528365 C95.3976698,104.458052 95.3976698,109.208052 98.3234508,112.13774 L102.221888,116.032271 C94.2336068,124.79399 87.0343878,134.208052 80.6906378,144.133833 L68.0422008,131.485396 Z M115.354701,16.8760208 C130.52267,17.4814898 144.796107,23.7353958 155.542201,34.4814898 L182.487513,61.4307088 C173.065638,64.9853958 163.909388,69.2275828 155.120326,74.1025828 L140.276576,59.2588328 C130.534388,49.5166458 115.417201,48.3408648 104.378138,55.7275828 C103.089076,50.5049268 100.405482,45.7158648 96.5031378,41.8174268 L80.7882938,26.1064898 C91.0382938,19.6260208 103.05392,16.3799268 115.354701,16.8760208 Z M23.7062628,39.0478958 L37.6125128,25.1416458 C40.5070438,22.2471148 44.3078258,20.8018018 48.1125128,20.8018018 C51.9172008,20.8018018 55.7179818,22.2471148 58.6164198,25.1416458 L64.0500128,30.5791458 C64.0773568,30.6025828 64.1047008,30.6338328 64.1320438,30.6572708 L85.9015758,52.4228958 C88.7062628,55.2314898 90.2492318,58.9580518 90.2492318,62.9268018 C90.2492318,66.8955518 88.7062628,70.6221148 85.9015758,73.4268018 L71.9914198,87.3330518 C66.2023568,93.1221148 56.7804818,93.1260208 50.9875128,87.3330518 L23.7062628,60.0518018 C20.8976698,57.2471148 19.3547008,53.5166458 19.3547008,49.5478958 C19.3547008,45.5830518 20.8976698,41.8525828 23.7062628,39.0478958 Z M24.5890758,82.1455518 L40.3820438,97.9385208 C44.3351698,101.891646 49.1320438,104.497115 54.1945438,105.766646 C50.8937628,110.493209 49.1086068,116.102583 49.1086068,121.989302 C49.1086068,129.583052 52.0695438,136.723677 57.4367318,142.090865 L109.257044,193.907271 C114.776576,199.426802 114.776576,208.411177 109.253138,213.938521 C106.589076,216.60649 103.034388,218.07524 99.2414198,218.07524 C95.4640758,218.07524 91.9093878,216.60649 89.2375128,213.934615 L32.6515758,157.352583 C12.4836068,137.188521 9.5461068,105.559615 24.5890758,82.1455518 Z" id="Shape"></path>
                <path d="M154.956263,282.403365 L118.14767,315.028365 C112.339076,320.176802 111.800013,329.090865 116.948451,334.899459 L137.229701,357.778365 C137.253138,357.801802 137.27267,357.829146 137.292201,357.85649 C137.311732,357.876021 137.327357,357.891646 137.346888,357.907271 L156.800013,379.852583 C159.573451,382.985396 163.448451,384.583052 167.339076,384.583052 C170.659388,384.583052 173.99142,383.41899 176.667201,381.047896 L213.475794,348.41899 C219.288294,343.274459 219.823451,334.35649 214.675013,328.547896 L174.827357,283.598677 C169.67892,277.790083 160.764857,277.254927 154.956263,282.403365 L154.956263,282.403365 Z M164.214076,294.239302 L178.675013,310.547896 L143.471888,342.211959 L128.784388,325.641646 L164.214076,294.239302 Z M167.409388,369.211959 L153.425013,353.434615 L188.624232,321.774459 L202.839076,337.805709 L167.409388,369.211959 Z" id="Shape"></path>
                <path d="M338.186732,133.532271 L285.385951,180.329146 C282.342982,183.028365 280.534388,186.751021 280.288294,190.809615 C280.046107,194.868209 281.393763,198.778365 284.092982,201.821333 L322.421107,245.055709 C325.11642,248.098677 328.839076,249.907271 332.89767,250.153365 C333.21017,250.172896 333.52267,250.180709 333.831263,250.180709 C337.55392,250.180709 341.104701,248.836959 343.909388,246.348677 L396.71017,199.547896 C399.753138,196.852583 401.561732,193.129927 401.807826,189.071333 C402.05392,185.008833 400.702357,181.098677 398.003138,178.055709 L359.67892,134.82524 C354.108607,128.54399 344.467982,127.965865 338.186732,133.532271 L338.186732,133.532271 Z M386.83517,188.16899 C386.831263,188.26274 386.788294,188.301802 386.760951,188.321333 L386.760951,188.32524 L333.96017,235.122115 C333.932826,235.145552 333.901576,235.192427 333.800013,235.180709 C333.706263,235.176802 333.667201,235.129927 333.643763,235.10649 L295.319544,191.872115 C295.296107,191.848677 295.257044,191.801802 295.260442,191.711959 C295.268763,191.618209 295.311732,191.579146 295.33517,191.555709 L348.135951,144.758833 C348.17892,144.719771 348.233607,144.70024 348.284388,144.70024 C348.350794,144.70024 348.409388,144.723677 348.452357,144.774459 L386.780482,188.008833 C386.80392,188.032271 386.842982,188.079146 386.83517,188.16899 Z" id="Shape"></path>
            </g>
        </g>
    </g>
</svg>