<?xml version="1.0" encoding="UTF-8"?>
<svg width="294px" height="513px" viewBox="0 0 294 513" version="1.1" xmlns="http://www.w3.org/2000/svg" xmlns:xlink="http://www.w3.org/1999/xlink">
    <title>interior-design_neutral</title>
    <g id="Page-1" stroke="none" stroke-width="1" fill="none" fill-rule="evenodd">
        <g id="Artboard" transform="translate(-1173.000000, -3251.000000)" fill="#031110" fill-rule="nonzero">
            <g id="interior-design_neutral" transform="translate(1173.355859, 3251.217000)">
                <path d="M51.3723155,204.102732 C47.3554867,203.026688 43.220102,205.407849 42.141044,209.426688 C39.5378414,219.125149 43.7586264,229.472653 52.405157,234.590644 C55.8683909,236.641256 59.8279513,237.724333 63.8538226,237.724333 L233.35938,237.724333 C237.386256,237.724333 241.344812,236.640251 244.808046,234.590644 C253.321954,229.552025 257.577904,219.338148 255.156554,209.751209 C254.137779,205.716295 250.037559,203.269827 246.005659,204.290612 C241.970746,205.309388 239.525283,209.406593 240.545063,213.441507 C241.341797,216.5973 239.938218,219.960063 237.132064,221.621852 C235.991719,222.297017 234.686601,222.653689 233.360385,222.653689 L63.8538226,222.653689 C62.5266013,222.653689 61.2224882,222.297017 60.0821429,221.621852 C57.2317818,219.934945 55.840259,216.52697 56.6972763,213.334003 C57.7753297,209.315165 55.3921586,205.18179 51.3723155,204.102732 L51.3723155,204.102732 Z" id="Path"></path>
                <path d="M292.578972,488.836421 L229.382739,267.86562 L233.35938,267.86562 C242.783556,267.86562 252.050997,265.328728 260.160008,260.529231 C281.964215,247.624741 291.478815,220.985871 282.783053,197.18832 L256.308956,124.732684 C254.880259,120.823359 250.55398,118.811931 246.645659,120.240628 C242.736334,121.66832 240.725911,125.995604 242.153603,129.903925 L268.6277,202.35956 C274.832786,219.342166 268.042959,238.351272 252.484027,247.559435 C246.697904,250.98449 240.084906,252.793972 233.35938,252.793972 L63.8538226,252.793972 C57.1293014,252.793972 50.516303,250.983485 44.7291758,247.559435 C29.1702433,238.350267 22.380416,219.342166 28.5855024,202.35956 L83.5390973,51.9635793 C91.6018917,29.8971429 112.803273,15.0706436 136.297402,15.0706436 L160.916805,15.0706436 C184.409929,15.0706436 205.612316,29.8971429 213.67511,51.9635793 L231.804089,101.580157 C233.231782,105.489482 237.558061,107.498901 241.468391,106.071209 C245.376711,104.643516 247.38814,100.316232 245.959443,96.4069074 L227.830463,46.7913344 C217.603524,18.8041444 190.713477,0 160.915801,0 L136.297402,0 C106.50073,0 79.6106829,18.8041444 69.3837441,46.7913344 L14.4301491,197.18832 C5.73438776,220.985871 15.2489874,247.625746 37.0531947,260.529231 C45.1622057,265.328728 54.4296468,267.86562 63.8538226,267.86562 L63.9080769,267.86562 L25.5583124,401.958179 C24.4139482,405.959937 26.7298038,410.130487 30.731562,411.274851 C31.4238069,411.472779 32.1210754,411.567221 32.807292,411.567221 C36.0856593,411.567221 39.1017975,409.41011 40.0482339,406.101601 L79.5835557,267.864615 L100.855267,267.864615 L21.1014207,494.856641 C20.6663815,496.094443 19.491876,496.927347 18.1797253,496.927347 C16.8364286,496.927347 16.0547645,496.154725 15.707135,495.694568 C15.3595055,495.234411 14.8330377,494.26989 15.2027708,492.978838 L32.2406358,433.403579 C33.385,429.401821 31.0691444,425.231272 27.0683909,424.085903 C23.0666327,422.941538 18.8960832,425.257394 17.751719,429.259152 L0.712849294,488.834411 C-0.869568289,494.366342 0.210494506,500.174568 3.67473312,504.7681 C7.13897174,509.361633 12.4257535,511.996986 18.1797253,511.996986 C25.8798195,511.996986 32.7671036,507.116107 35.3200706,499.852057 L73.2006358,392.038681 C73.649741,391.806593 74.0867896,391.540345 74.4947017,391.209796 L146.099349,333.19686 L218.930746,389.13708 C218.990024,389.182292 219.054325,389.212433 219.114608,389.255636 L257.97376,499.852057 C260.525722,507.116107 267.414011,511.996986 275.114105,511.996986 C280.868077,511.996986 286.154859,509.362637 289.619097,504.769105 C293.081327,500.177582 294.161389,494.369356 292.578972,488.836421 L292.578972,488.836421 Z M115.473791,271.72471 L133.739411,287.122889 L122.39624,295.992465 L110.230212,286.648666 L115.473791,271.72471 Z M134.279945,267.866625 L158.364843,267.866625 L145.870275,277.637425 L134.279945,267.866625 Z M145.512598,297.04741 L155.935455,305.833595 L145.849176,314.005903 L134.739097,305.4719 L145.512598,297.04741 Z M167.859349,296.174317 L157.643462,287.561947 L177.834105,271.772936 L182.297025,284.475479 L167.859349,296.174317 Z M82.6187834,365.234035 L104.972567,301.611805 L133.808736,323.760628 L82.6187834,365.234035 Z M158.138783,323.445149 L187.601892,299.574254 L209.979788,363.262794 L158.138783,323.445149 Z M277.584686,495.697582 C277.237057,496.157739 276.454388,496.929356 275.112096,496.929356 C273.799945,496.929356 272.62544,496.097457 272.1904,494.85865 L192.436554,267.866625 L213.708265,267.866625 L278.090055,492.980848 C278.458783,494.2719 277.931311,495.237425 277.584686,495.697582 Z" id="Shape"></path>
            </g>
        </g>
    </g>
</svg>