<?xml version="1.0" encoding="UTF-8"?>
<svg width="426px" height="513px" viewBox="0 0 426 513" version="1.1" xmlns="http://www.w3.org/2000/svg" xmlns:xlink="http://www.w3.org/1999/xlink">
    <title>file_neutral</title>
    <g id="Page-1" stroke="none" stroke-width="1" fill="none" fill-rule="evenodd">
        <g id="Artboard" transform="translate(-1107.000000, -3963.000000)" fill="#031110" fill-rule="nonzero">
            <g id="file_neutral" transform="translate(1107.859219, 3963.213986)">
                <path d="M317.804688,3.265625 C315.867188,1.222656 313.214844,0 310.460938,0 L145.746094,0 C118.617188,0 95.972656,19.886719 91.484375,45.792969 C68.640625,49.773438 50.6875,67.824219 46.710938,90.570312 C20.296875,94.648438 0,117.597656 0,145.132812 L0,456.617188 C0,487.011719 24.578125,512 54.972656,512 L278.539062,512 C305.667969,512 328.210938,492.210938 332.800781,466.304688 C356.15625,462.738281 374.71875,444.378906 378.695312,421.125 C404.601562,416.636719 424.285156,393.996094 424.285156,366.761719 L424.285156,119.535156 C424.285156,116.882812 423.367188,114.332031 421.53125,112.394531 L317.804688,3.265625 Z M320.253906,36.003906 L390.425781,109.132812 L345.140625,109.132812 C331.675781,109.132812 320.253906,98.320312 320.253906,84.855469 L320.253906,36.003906 Z M278.539062,491.601562 L54.972656,491.601562 C35.796875,491.601562 20.398438,475.792969 20.398438,456.617188 L20.398438,145.136719 C20.398438,129.222656 30.597656,115.761719 45.894531,111.683594 L45.894531,411.742188 C45.894531,442.136719 70.476562,467.125 100.867188,467.125 L311.6875,467.125 C307.300781,481.402344 294.144531,491.601562 278.539062,491.601562 Z M324.4375,446.726562 L100.867188,446.726562 C81.796875,446.726562 66.292969,430.917969 66.292969,411.742188 L66.292969,100.257812 C66.292969,84.652344 76.492188,71.496094 90.769531,67.109375 L90.769531,366.867188 C90.769531,397.257812 115.351562,422.246094 145.746094,422.246094 L357.582031,422.246094 C353.199219,436.527344 340.039062,446.726562 324.4375,446.726562 Z M369.3125,401.847656 L145.746094,401.847656 C126.671875,401.847656 111.171875,386.039062 111.171875,366.863281 L111.171875,55.382812 C111.171875,36.308594 126.570312,20.398438 145.746094,20.398438 L299.855469,20.398438 L299.855469,84.855469 C299.855469,109.640625 320.355469,129.53125 345.140625,129.53125 L403.886719,129.53125 L403.886719,366.863281 C403.886719,386.039062 388.488281,401.847656 369.3125,401.847656 Z" id="Shape"></path>
                <path d="M341.46875,336.574219 L173.589844,336.574219 C167.980469,336.574219 163.390625,341.164062 163.390625,346.773438 C163.390625,352.382812 167.980469,356.972656 173.589844,356.972656 L341.570312,356.972656 C347.179688,356.972656 351.769531,352.382812 351.769531,346.773438 C351.769531,341.164062 347.179688,336.574219 341.46875,336.574219 Z" id="Path"></path>
                <path d="M189.703125,302.917969 L325.355469,302.917969 C337.492188,302.917969 347.792969,293.023438 347.792969,280.886719 L347.792969,168.695312 C347.792969,156.558594 337.492188,146.765625 325.355469,146.765625 L306.996094,146.765625 L306.996094,137.585938 C306.996094,131.976562 302.40625,127.386719 296.796875,127.386719 C291.1875,127.386719 286.597656,131.976562 286.597656,137.585938 L286.597656,146.765625 L228.460938,146.765625 L228.460938,137.585938 C228.460938,131.976562 223.871094,127.386719 218.261719,127.386719 C212.652344,127.386719 208.0625,131.976562 208.0625,137.585938 L208.0625,146.765625 L189.703125,146.765625 C177.566406,146.765625 167.265625,156.558594 167.265625,168.695312 L167.265625,280.886719 C167.265625,293.023438 177.566406,302.917969 189.703125,302.917969 Z M325.351562,282.519531 L189.703125,282.519531 C188.785156,282.519531 187.664062,281.804688 187.664062,280.886719 L187.664062,213.164062 L327.394531,213.164062 L327.394531,280.886719 C327.394531,281.804688 326.167969,282.519531 325.351562,282.519531 Z M189.703125,167.265625 L208.0625,167.265625 L208.0625,174.507812 C208.0625,180.117188 212.652344,184.707031 218.261719,184.707031 C223.871094,184.707031 228.460938,180.117188 228.460938,174.507812 L228.460938,167.265625 L286.597656,167.265625 L286.597656,174.507812 C286.597656,180.117188 291.1875,184.707031 296.796875,184.707031 C302.40625,184.707031 306.996094,180.117188 306.996094,174.507812 L306.996094,167.265625 L325.355469,167.265625 C326.273438,167.265625 327.394531,167.878906 327.394531,168.796875 L327.394531,192.765625 L187.664062,192.765625 L187.664062,168.796875 C187.664062,167.878906 188.886719,167.265625 189.703125,167.265625 Z" id="Shape"></path>
            </g>
        </g>
    </g>
</svg>