<?xml version="1.0" encoding="UTF-8"?>
<svg width="412px" height="513px" viewBox="0 0 412 513" version="1.1" xmlns="http://www.w3.org/2000/svg" xmlns:xlink="http://www.w3.org/1999/xlink">
    <title>kitchen_neutral</title>
    <g id="Page-1" stroke="none" stroke-width="1" fill="none" fill-rule="evenodd">
        <g id="Artboard" transform="translate(-1114.000000, -1875.000000)" fill="#031110" fill-rule="nonzero">
            <g id="kitchen_neutral" transform="translate(1114.704922, 1875.217000)">
                <path d="M402.988281,276.144531 C407.191406,276.144531 410.59375,272.738281 410.59375,268.539062 L410.59375,200.109375 C410.59375,195.910156 407.191406,192.507812 402.988281,192.507812 L384.464844,192.507812 L384.464844,174.257812 C384.464844,170.058594 381.0625,166.65625 376.863281,166.65625 L240,166.65625 C235.796875,166.65625 232.394531,170.058594 232.394531,174.257812 L232.394531,192.507812 L204.050781,192.507812 L204.050781,181.863281 L217.738281,181.863281 C221.9375,181.863281 225.34375,178.457031 225.34375,174.257812 L225.34375,75.414062 L247.878906,75.414062 C252.078125,75.414062 255.480469,72.007812 255.480469,67.808594 C255.480469,63.609375 252.078125,60.207031 247.878906,60.207031 L225.34375,60.207031 L225.34375,38.917969 C225.34375,34.714844 221.9375,31.3125 217.738281,31.3125 L151.277344,31.3125 L151.277344,7.605469 C151.277344,3.40625 147.871094,0 143.671875,0 L112.359375,0 C108.160156,0 104.757812,3.40625 104.757812,7.605469 L104.757812,31.3125 L38.292969,31.3125 C34.09375,31.3125 30.691406,34.714844 30.691406,38.917969 L30.691406,60.207031 L7.605469,60.207031 C3.40625,60.207031 0,63.609375 0,67.808594 C0,72.007812 3.40625,75.414062 7.605469,75.414062 L30.691406,75.414062 L30.691406,102.28125 C30.691406,106.480469 34.09375,109.882812 38.292969,109.882812 C42.492188,109.882812 45.898438,106.480469 45.898438,102.28125 L45.898438,46.519531 L210.132812,46.519531 L210.132812,60.207031 L184.007812,60.207031 C179.808594,60.207031 176.402344,63.609375 176.402344,67.808594 C176.402344,72.007812 179.808594,75.414062 184.007812,75.414062 L210.132812,75.414062 L210.132812,166.65625 L45.898438,166.65625 L45.898438,132.695312 C45.898438,128.496094 42.492188,125.09375 38.292969,125.09375 C34.09375,125.09375 30.691406,128.496094 30.691406,132.695312 L30.691406,174.261719 C30.691406,178.460938 34.09375,181.863281 38.292969,181.863281 L51.980469,181.863281 L51.980469,192.507812 L33.457031,192.507812 C29.257812,192.507812 25.851562,195.914062 25.851562,200.113281 L25.851562,504.394531 C25.851562,508.59375 29.257812,512 33.457031,512 L402.988281,512 C407.191406,512 410.59375,508.59375 410.59375,504.394531 L410.59375,298.957031 C410.59375,294.757812 407.191406,291.355469 402.988281,291.355469 C398.789062,291.355469 395.386719,294.757812 395.386719,298.957031 L395.386719,496.792969 L41.058594,496.792969 L41.058594,207.714844 L395.386719,207.714844 L395.386719,268.539062 C395.386719,272.738281 398.789062,276.144531 402.988281,276.144531 Z M119.964844,31.3125 L119.964844,15.207031 L136.066406,15.207031 L136.066406,31.3125 L119.964844,31.3125 Z M67.1875,192.507812 L67.1875,181.863281 L188.84375,181.863281 L188.84375,192.507812 L67.1875,192.507812 Z M247.601562,192.507812 L247.601562,181.863281 L369.257812,181.863281 L369.257812,192.507812 L247.601562,192.507812 Z" id="Shape"></path>
                <path d="M104.929688,457.226562 L331.515625,457.226562 C335.714844,457.226562 339.121094,453.820312 339.121094,449.621094 L339.121094,295.445312 C339.121094,291.246094 335.714844,287.839844 331.515625,287.839844 L104.929688,287.839844 C100.730469,287.839844 97.324219,291.246094 97.324219,295.445312 L97.324219,449.621094 C97.324219,453.820312 100.730469,457.226562 104.929688,457.226562 L104.929688,457.226562 Z M112.535156,303.046875 L323.910156,303.046875 L323.910156,442.015625 L112.535156,442.015625 L112.535156,303.046875 Z" id="Shape"></path>
                <path d="M296.4375,386.253906 L140.011719,386.253906 C135.8125,386.253906 132.40625,389.660156 132.40625,393.859375 C132.40625,398.058594 135.8125,401.460938 140.011719,401.460938 L296.4375,401.460938 C300.636719,401.460938 304.039062,398.058594 304.039062,393.859375 C304.039062,389.660156 300.636719,386.253906 296.4375,386.253906 Z" id="Path"></path>
                <path d="M296.4375,343.601562 L140.011719,343.601562 C135.8125,343.601562 132.40625,347.007812 132.40625,351.207031 C132.40625,355.40625 135.8125,358.8125 140.011719,358.8125 L296.4375,358.8125 C300.636719,358.8125 304.039062,355.40625 304.039062,351.207031 C304.039062,347.007812 300.636719,343.601562 296.4375,343.601562 Z" id="Path"></path>
                <path d="M128.121094,247.253906 C128.121094,230.0625 114.136719,216.078125 96.945312,216.078125 C79.753906,216.078125 65.769531,230.0625 65.769531,247.253906 C65.769531,264.445312 79.753906,278.429688 96.945312,278.429688 C114.136719,278.429688 128.121094,264.445312 128.121094,247.253906 Z M96.945312,263.222656 C88.140625,263.222656 80.976562,256.058594 80.976562,247.253906 C80.976562,238.449219 88.140625,231.285156 96.945312,231.285156 C105.75,231.285156 112.914062,238.449219 112.914062,247.253906 C112.914062,256.058594 105.75,263.222656 96.945312,263.222656 Z" id="Shape"></path>
                <path d="M289.824219,247.253906 C289.824219,230.0625 275.839844,216.078125 258.648438,216.078125 C241.457031,216.078125 227.472656,230.0625 227.472656,247.253906 C227.472656,264.445312 241.457031,278.429688 258.648438,278.429688 C275.839844,278.429688 289.824219,264.445312 289.824219,247.253906 L289.824219,247.253906 Z M242.679688,247.253906 C242.679688,238.449219 249.84375,231.289062 258.648438,231.289062 C267.453125,231.289062 274.617188,238.449219 274.617188,247.253906 C274.617188,256.058594 267.453125,263.222656 258.648438,263.222656 C249.84375,263.222656 242.679688,256.058594 242.679688,247.253906 L242.679688,247.253906 Z" id="Shape"></path>
                <path d="M208.972656,247.253906 C208.972656,230.0625 194.988281,216.078125 177.796875,216.078125 C160.605469,216.078125 146.621094,230.0625 146.621094,247.253906 C146.621094,264.445312 160.605469,278.429688 177.796875,278.429688 C194.988281,278.429688 208.972656,264.445312 208.972656,247.253906 Z M161.832031,247.253906 C161.832031,238.449219 168.992188,231.289062 177.796875,231.289062 C186.601562,231.289062 193.765625,238.449219 193.765625,247.253906 C193.765625,256.058594 186.601562,263.222656 177.796875,263.222656 C168.992188,263.222656 161.832031,256.058594 161.832031,247.253906 L161.832031,247.253906 Z" id="Shape"></path>
                <path d="M370.675781,247.253906 C370.675781,230.0625 356.691406,216.078125 339.5,216.078125 C322.308594,216.078125 308.324219,230.0625 308.324219,247.253906 C308.324219,264.445312 322.308594,278.429688 339.5,278.429688 C356.691406,278.429688 370.675781,264.445312 370.675781,247.253906 L370.675781,247.253906 Z M323.53125,247.253906 C323.53125,238.449219 330.695312,231.289062 339.5,231.289062 C348.304688,231.289062 355.46875,238.449219 355.46875,247.253906 C355.46875,256.058594 348.304688,263.222656 339.5,263.222656 C330.695312,263.222656 323.53125,256.058594 323.53125,247.253906 L323.53125,247.253906 Z" id="Shape"></path>
            </g>
        </g>
    </g>
</svg>