<?xml version="1.0" encoding="UTF-8"?>
<svg width="306px" height="336px" viewBox="0 0 306 336" version="1.1" xmlns="http://www.w3.org/2000/svg" xmlns:xlink="http://www.w3.org/1999/xlink">
    <title>window_neutral</title>
    <g id="Page-1" stroke="none" stroke-width="1" fill="none" fill-rule="evenodd">
        <g id="Artboard" transform="translate(-1167.000000, -4675.000000)" fill="#031110" fill-rule="nonzero">
            <g id="window_neutral" transform="translate(1167.159797, 4675.213986)">
                <path d="M32.777,296.901 L133.425,296.901 L133.425,26.582 L32.777,26.582 L32.777,296.901 Z M39.777,141.048 L126.425,54.401 L126.425,132.822 L126.293,132.69 L39.777,219.206 L39.777,141.048 L39.777,141.048 Z M39.777,289.902 L39.777,229.105 L126.425,142.457 L126.425,289.902 L39.777,289.902 L39.777,289.902 Z M126.425,44.766 L126.293,44.634 L39.777,131.149 L39.777,111.606 L117.8,33.582 L126.425,33.582 L126.425,44.766 Z M107.901,33.582 L39.777,101.707 L39.777,33.582 L107.901,33.582 Z" id="Shape"></path>
                <path d="M292.085,316.484 L292.085,0 L13.599,0 L13.599,316.484 L0,316.484 L0,335.483 L305.684,335.483 L305.684,316.484 L292.085,316.484 Z M285.085,316.484 L247.681,316.484 L250.268,296.901 L272.902,296.901 L272.902,26.581 L172.262,26.581 L172.262,296.901 L207.736,296.901 L210.323,316.484 L156.342,316.484 L156.342,7 L285.085,7 L285.085,316.484 Z M179.387,112.626 L258.431,33.581 L265.902,33.581 L265.902,45.664 L179.262,132.304 L179.262,112.501 L179.387,112.626 Z M179.262,102.853 L179.262,33.581 L248.533,33.581 L179.262,102.853 Z M265.902,133.72 L179.262,220.361 L179.262,141.945 L179.391,142.074 L265.902,55.563 L265.902,133.72 Z M179.262,230.001 L179.391,230.13 L265.902,143.618 L265.902,289.902 L251.193,289.902 L254.496,264.901 L233.003,264.901 L233.003,260.461 L240.203,256.461 L236.803,250.342 L233.003,252.453 L233.003,247.449 C239.171,245.883 243.753,240.3 243.753,233.652 L243.753,207.907 L229.503,219.838 L215.253,207.907 L215.253,233.652 C215.253,240.3 219.835,245.883 226.003,247.449 L226.003,264.902 L203.51,264.902 L206.813,289.902 L179.263,289.902 L179.263,230.001 L179.262,230.001 Z M229.502,240.901 C225.504,240.901 222.252,237.649 222.252,233.651 L222.252,222.896 L229.502,228.965 L236.752,222.896 L236.752,233.651 C236.752,237.649 233.5,240.901 229.502,240.901 Z M246.509,271.901 L240.696,315.901 L217.307,315.901 L211.494,271.901 L246.509,271.901 Z M20.599,7 L149.342,7 L149.342,316.484 L20.599,316.484 L20.599,7 Z M298.684,328.483 L7,328.483 L7,323.484 L298.684,323.484 L298.684,328.483 Z" id="Shape"></path>
                <rect id="Rectangle" x="137.742" y="176.734" width="7" height="29.334"></rect>
                <rect id="Rectangle" x="160.942" y="176.734" width="7" height="29.334"></rect>
            </g>
        </g>
    </g>
</svg>