<?xml version="1.0" encoding="UTF-8"?>
<svg width="512px" height="512px" viewBox="0 0 512 512" version="1.1" xmlns="http://www.w3.org/2000/svg" xmlns:xlink="http://www.w3.org/1999/xlink">
    <title>desk_neutral</title>
    <g id="Page-1" stroke="none" stroke-width="1" fill="none" fill-rule="evenodd">
        <g id="Artboard" transform="translate(-1064.000000, -578.000000)" fill="#031110" fill-rule="nonzero">
            <g id="desk_neutral" transform="translate(1064.000899, 578.000000)">
                <path d="M494.502797,213.864 L475.393797,213.864 C471.251797,213.864 467.893797,217.222 467.893797,221.364 C467.893797,225.506 471.251797,228.864 475.393797,228.864 L494.502797,228.864 C495.880797,228.864 497.002797,229.986 497.002797,231.364 L497.002797,253.75 C497.002797,255.128 495.880797,256.25 494.502797,256.25 L17.5027973,256.25 C16.1247973,256.25 15.0027973,255.128 15.0027973,253.75 L15.0027973,231.364 C15.0027973,229.986 16.1247973,228.864 17.5027973,228.864 L436.282797,228.864 C440.424797,228.864 443.782797,225.506 443.782797,221.364 C443.782797,217.222 440.424797,213.864 436.282797,213.864 L411.575797,213.864 L411.575797,202.924 C411.575797,193.275 403.724797,185.424 394.075797,185.424 L372.213797,185.424 C362.564797,185.424 354.713797,193.275 354.713797,202.924 L354.713797,213.864 L301.759797,213.864 L284.854797,195.831 C280.795797,191.501 278.560797,185.849 278.560797,179.914 L278.560797,167.51 L343.030797,167.51 C352.679797,167.51 360.530797,159.659 360.530797,150.01 L360.530797,79.32 C360.530797,75.178 357.172797,71.82 353.030797,71.82 C348.888797,71.82 345.530797,75.178 345.530797,79.32 L345.530797,120.111 L158.837797,120.111 L158.837797,17.5 C158.837797,16.122 159.959797,15 161.337797,15 L343.029797,15 C344.407797,15 345.529797,16.122 345.529797,17.5 L345.529797,44.76 C345.529797,48.902 348.887797,52.26 353.029797,52.26 C357.171797,52.26 360.529797,48.902 360.529797,44.76 L360.529797,17.5 C360.529797,7.851 352.678797,0 343.029797,0 L161.337797,0 C151.688797,0 143.837797,7.851 143.837797,17.5 L143.837797,150.01 C143.837797,159.659 151.688797,167.51 161.337797,167.51 L225.807797,167.51 L225.807797,179.914 C225.807797,185.849 223.572797,191.501 219.513797,195.831 L202.608797,213.864 L118.717797,213.864 L118.717797,163.011 C118.717797,157.221 114.007797,152.511 108.217797,152.511 L32.6177973,152.511 C26.8277973,152.511 22.1177973,157.221 22.1177973,163.011 L22.1177973,213.864 L17.5027973,213.864 C7.8537973,213.864 0,221.715 0,231.364 L0,253.75 C0,263.399 7.8537973,271.25 17.5027973,271.25 L54.8097973,271.25 L45.4447973,309.997 C44.4717973,314.023 46.9467973,318.076 50.9727973,319.049 C51.5647973,319.192 52.1567973,319.261 52.7407973,319.261 C56.1237973,319.261 59.1947973,316.955 60.0247973,313.521 L70.2407973,271.251 L90.1387973,271.251 L35.5787973,497.002 L15.6807973,497.002 L52.6327973,344.109 C53.6057973,340.083 51.1307973,336.03 47.1047973,335.057 C43.0757973,334.084 39.0257973,336.559 38.0527973,340.585 L0.354797297,496.564 C-0.551202703,500.313 0.296797297,504.202 2.6827973,507.232 C5.0677973,510.262 8.6477973,512.002 12.5047973,512.002 L37.5457973,512.002 C43.3387973,512.002 48.3347973,508.068 49.6957973,502.438 L102.310797,284.736 L154.925797,502.439 C156.286797,508.069 161.282797,512.002 167.075797,512.002 L192.116797,512.002 C195.973797,512.002 199.554797,510.264 201.939797,507.233 C204.324797,504.202 205.172797,500.314 204.266797,496.566 L149.812797,271.249 L305.715797,271.249 L305.715797,473.44 L305.715797,499.5 C305.715797,506.393 311.322797,512.002 318.215797,512.002 L339.415797,512.002 C346.308797,512.002 351.915797,506.393 351.915797,499.5 L351.915797,480.94 L436.692797,480.94 L436.692797,499.5 C436.692797,506.393 442.299797,512.002 449.192797,512.002 L470.392797,512.002 C477.285797,512.002 482.892797,506.393 482.892797,499.5 L482.892797,473.44 L482.892797,271.249 L494.501797,271.249 C504.150797,271.249 512.001797,263.398 512.001797,253.749 L512.001797,231.363 C512.001797,221.714 504.151797,213.864 494.502797,213.864 L494.502797,213.864 Z M369.713797,202.924 C369.713797,201.546 370.835797,200.424 372.213797,200.424 L394.075797,200.424 C395.453797,200.424 396.575797,201.546 396.575797,202.924 L396.575797,213.864 L369.713797,213.864 L369.713797,202.924 Z M158.837797,150.011 L158.837797,135.111 L345.529797,135.111 L345.529797,150.011 C345.529797,151.389 344.407797,152.511 343.029797,152.511 L161.337797,152.511 C159.959797,152.511 158.837797,151.389 158.837797,150.011 Z M230.456797,206.09 C237.131797,198.97 240.807797,189.674 240.807797,179.915 L240.807797,167.511 L263.560797,167.511 L263.560797,179.915 C263.560797,189.675 267.236797,198.971 273.911797,206.09 L281.199797,213.864 L223.169797,213.864 L230.456797,206.09 Z M103.717797,167.511 L103.717797,182.953 L37.1177973,182.953 L37.1177973,167.511 L103.717797,167.511 Z M37.1177973,198.307 L103.717797,198.41 L103.717797,213.863 L37.1177973,213.863 L37.1177973,198.307 Z M188.941797,497 L169.044797,497 L114.484797,271.249 L134.381797,271.249 L188.941797,497 Z M320.715797,465.94 L320.715797,408.768 L467.892797,408.768 L467.892797,465.94 L444.192797,465.94 L320.715797,465.94 Z M467.892797,393.768 L320.715797,393.768 L320.715797,338.103 L467.892797,338.103 L467.892797,393.768 Z M336.915797,497 L320.715797,497 L320.715797,480.94 L336.915797,480.94 L336.915797,497 Z M467.892797,497 L451.692797,497 L451.692797,480.94 L467.892797,480.94 L467.892797,497 Z M467.892797,323.103 L320.715797,323.103 L320.715797,271.249 L467.892797,271.249 L467.892797,323.103 Z" id="Shape"></path>
                <path d="M387.933797,303.82 L400.675797,303.82 C404.817797,303.82 408.175797,300.462 408.175797,296.32 C408.175797,292.178 404.817797,288.82 400.675797,288.82 L387.933797,288.82 C383.791797,288.82 380.433797,292.178 380.433797,296.32 C380.433797,300.462 383.791797,303.82 387.933797,303.82 Z" id="Path"></path>
                <path d="M387.933797,373.38 L400.675797,373.38 C404.817797,373.38 408.175797,370.022 408.175797,365.88 C408.175797,361.738 404.817797,358.38 400.675797,358.38 L387.933797,358.38 C383.791797,358.38 380.433797,361.738 380.433797,365.88 C380.433797,370.022 383.791797,373.38 387.933797,373.38 Z" id="Path"></path>
                <path d="M400.675797,428.94 L387.933797,428.94 C383.791797,428.94 380.433797,432.298 380.433797,436.44 C380.433797,440.582 383.791797,443.94 387.933797,443.94 L400.675797,443.94 C404.817797,443.94 408.175797,440.582 408.175797,436.44 C408.175797,432.298 404.817797,428.94 400.675797,428.94 Z" id="Path"></path>
            </g>
        </g>
    </g>
</svg>