<?xml version="1.0" encoding="UTF-8"?>
<svg width="512px" height="513px" viewBox="0 0 512 513" version="1.1" xmlns="http://www.w3.org/2000/svg" xmlns:xlink="http://www.w3.org/1999/xlink">
    <title>target_neutral</title>
    <g id="Page-1" stroke="none" stroke-width="1" fill="none" fill-rule="evenodd">
        <g id="Artboard" transform="translate(-1064.000000, -5210.000000)" fill="#031110" fill-rule="nonzero">
            <g id="target_neutral" transform="translate(1064.001797, 5210.696986)">
                <path d="M256,512 C114.837333,512 0,397.162667 0,256 C0,114.837333 114.837333,0 256,0 C350.954667,0 437.610667,52.2026667 482.176,136.234667 C484.928,141.44 482.944,147.904 477.738667,150.656 C472.512,153.386667 466.090667,151.424 463.317333,146.218667 C422.485333,69.184 343.04,21.3333333 256,21.3333333 C126.613333,21.3333333 21.3333333,126.613333 21.3333333,256 C21.3333333,385.386667 126.613333,490.666667 256,490.666667 C343.04,490.666667 422.485333,442.816 463.317333,365.781333 C466.090667,360.597333 472.533333,358.592 477.738667,361.344 C482.944,364.096 484.928,370.56 482.176,375.765333 C437.610667,459.797333 350.954667,512 256,512 Z" id="Path"></path>
                <path d="M256,426.666667 C161.898667,426.666667 85.3333333,350.101333 85.3333333,256 C85.3333333,161.898667 161.898667,85.3333333 256,85.3333333 C309.930667,85.3333333 359.210667,109.824 391.253333,152.533333 C394.794667,157.248 393.834667,163.925333 389.12,167.466667 C384.384,170.986667 377.706667,170.048 374.186667,165.333333 C346.218667,128.042667 303.146667,106.666667 256,106.666667 C173.653333,106.666667 106.666667,173.653333 106.666667,256 C106.666667,338.346667 173.653333,405.333333 256,405.333333 C303.146667,405.333333 346.218667,383.957333 374.186667,346.666667 C377.728,341.952 384.405333,341.013333 389.12,344.533333 C393.834667,348.074667 394.794667,354.752 391.253333,359.466667 C359.210667,402.176 309.930667,426.666667 256,426.666667 L256,426.666667 Z" id="Path"></path>
                <path d="M181.333333,266.666667 C175.445333,266.666667 170.666667,261.888 170.666667,256 C170.666667,253.504 170.901333,250.773333 171.136,248.298667 C171.093333,246.549333 171.584,243.754667 172.138667,240.917333 C179.072,200.341333 214.357333,170.666667 256,170.666667 C271.616,170.666667 286.741333,174.912 299.776,182.912 C304.789333,186.005333 306.368,192.576 303.274667,197.589333 C300.202667,202.602667 293.589333,204.181333 288.597333,201.088 C278.933333,195.136 267.669333,192 256,192 C224.789333,192 198.336,214.208 193.130667,244.778667 C192.789333,246.549333 192.426667,247.957333 192.426667,249.386667 C192.192,252.266667 192,254.229333 192,256 C192,261.888 187.221333,266.666667 181.333333,266.666667 L181.333333,266.666667 Z" id="Path"></path>
                <path d="M448,320 C412.714667,320 384,291.285333 384,256 C384,220.714667 412.714667,192 448,192 C483.285333,192 512,220.714667 512,256 C512,291.285333 483.285333,320 448,320 Z M448,213.333333 C424.469333,213.333333 405.333333,232.469333 405.333333,256 C405.333333,279.530667 424.469333,298.666667 448,298.666667 C471.530667,298.666667 490.666667,279.530667 490.666667,256 C490.666667,232.469333 471.530667,213.333333 448,213.333333 Z" id="Shape"></path>
                <path d="M245.333333,298.666667 C239.445333,298.666667 234.666667,293.888 234.666667,288 L234.666667,266.666667 C234.666667,254.912 244.245333,245.333333 256,245.333333 L394.666667,245.333333 C400.554667,245.333333 405.333333,250.112 405.333333,256 C405.333333,261.888 400.554667,266.666667 394.666667,266.666667 L256,266.666667 L256,288 C256,293.888 251.221333,298.666667 245.333333,298.666667 Z" id="Path"></path>
                <path d="M288,298.666667 C282.112,298.666667 277.333333,293.888 277.333333,288 L277.333333,256 C277.333333,250.112 282.112,245.333333 288,245.333333 C293.888,245.333333 298.666667,250.112 298.666667,256 L298.666667,288 C298.666667,293.888 293.888,298.666667 288,298.666667 Z" id="Path"></path>
            </g>
        </g>
    </g>
</svg>